<svg xmlns="http://www.w3.org/2000/svg"><defs><font id="icomoon" horiz-adv-x="1024"><font-face units-per-em="1024" ascent="960" descent="-64"/><glyph horiz-adv-x="512"/><glyph unicode="" horiz-adv-x="1074" d="M330.323 734.775c0-91.216-73.945-165.161-165.161-165.161S.001 643.559.001 734.775c0 91.216 73.945 165.161 165.161 165.161s165.161-73.945 165.161-165.161z"/><glyph unicode="" horiz-adv-x="1074" d="M732.641 744.669H228.899v-83.956h503.742v83.956z"/><glyph unicode="" horiz-adv-x="1074" d="M732.641 576.756H228.899v-83.958h503.742v83.958z"/><glyph unicode="" horiz-adv-x="1074" d="M228.899 408.84h335.829v-83.956H228.899v83.956z"/><glyph unicode="" horiz-adv-x="1074" d="M643.564 413.962a125.975 125.975 0 0 0 210.875-57.357 125.969 125.969 0 0 0-8.161-85.999l64.436-64.436-59.357-59.357-64.436 64.395a125.932 125.932 0 0 0-86.117-8.344 125.93 125.93 0 0 0-93.82 132.692 125.931 125.931 0 0 0 36.58 78.407zm59.399-118.756a41.971 41.971 0 0 1 13.626-9.097 41.993 41.993 0 0 1 54.851 22.742 42.003 42.003 0 0 1 3.191 16.069 41.976 41.976 0 0 1-12.309 29.685 41.989 41.989 0 0 1-59.379-.021 41.988 41.988 0 0 1 .022-59.377z"/><glyph unicode="" horiz-adv-x="1076" d="M347.119 775.39c0-95.854-77.705-173.559-173.559-173.559S.001 679.536.001 775.39 77.706 948.949 173.56 948.949s173.559-77.705 173.559-173.559z"/><glyph unicode="" horiz-adv-x="1076" d="M612.456 590.263a40.498 40.498 0 0 1 0-80.995h161.99a40.497 40.497 0 1 1 0 80.995h-161.99z"/><glyph unicode="" horiz-adv-x="1076" d="M612.456 225.789a40.498 40.498 0 0 1 0-80.995h161.99a40.497 40.497 0 1 1 0 80.995h-161.99z"/><glyph unicode="" horiz-adv-x="1076" d="M612.456 711.755a40.498 40.498 0 0 1 0-80.995h323.978a40.497 40.497 0 1 1 0 80.995H612.456z"/><glyph unicode="" horiz-adv-x="1076" d="M612.456 347.28a40.498 40.498 0 0 1 0-80.995h323.978a40.497 40.497 0 1 1 0 80.995H612.456z"/><glyph unicode="" horiz-adv-x="1076" d="M243.769 752.17a40.497 40.497 0 0 1-40.497-40.497V509.187a40.497 40.497 0 0 1 40.497-40.497h202.486a40.497 40.497 0 0 1 40.497 40.497v202.486a40.497 40.497 0 0 1-40.497 40.497H243.769z"/><glyph unicode="" horiz-adv-x="1076" d="M243.769 387.856a40.498 40.498 0 0 1-40.497-40.498V144.873a40.5 40.5 0 0 1 40.497-40.499h202.486a40.5 40.5 0 0 1 40.497 40.499v202.485a40.496 40.496 0 0 1-40.497 40.498H243.769z"/><glyph unicode="" horiz-adv-x="1007" d="M386.098 714.295c0-92.711-75.157-167.869-167.869-167.869S50.36 621.583 50.36 714.295c0 92.711 75.157 167.869 167.869 167.869s167.869-75.157 167.869-167.869z"/><glyph unicode="" horiz-adv-x="1007" d="M284.496 691.633a125.9 125.9 0 0 0 174.174 29.316 125.9 125.9 0 0 0 32.095-173.684L250.041 203.47a125.906 125.906 0 0 0-174.765-30.111 125.906 125.906 0 0 0-31.504 174.52l240.724 343.753z"/><glyph unicode="" horiz-adv-x="1007" d="M640.755 687.938a125.907 125.907 0 0 0 175.359 30.909 125.909 125.909 0 0 0 30.91-175.361L606.3 199.733a125.906 125.906 0 0 0-174.765-30.111 125.902 125.902 0 0 0-31.504 174.52l240.724 343.795z"/><glyph unicode="" horiz-adv-x="1007" d="M860.328 157.807a125.903 125.903 0 1 1-.001 251.806 125.903 125.903 0 0 1 .001-251.806z"/><glyph unicode="" horiz-adv-x="1004" d="M220.863 846.824c0-110.89-89.894-200.784-200.784-200.784s-200.784 89.894-200.784 200.784c0 110.89 89.894 200.784 200.784 200.784s200.784-89.894 200.784-200.784z"/><glyph unicode="" horiz-adv-x="1004" d="M501.961 654.404a209.152 209.152 0 0 0 147.892-357.043 209.145 209.145 0 0 0-147.892-61.257 209.15 209.15 0 1 0 0 418.3zm-125.49-209.151a125.491 125.491 0 1 1 250.982.002 125.491 125.491 0 0 1-250.982-.002z"/><glyph unicode="" horiz-adv-x="1004" d="M752.941 738.063a41.83 41.83 0 1 1 .002-83.661 41.83 41.83 0 0 1-.002 83.661z"/><glyph unicode="" horiz-adv-x="1004" d="M209.151 905.385h585.62a167.318 167.318 0 0 0 167.321-167.32V152.443A167.32 167.32 0 0 0 794.771-14.876h-585.62A167.324 167.324 0 0 0 41.83 152.443v585.622a167.319 167.319 0 0 0 167.321 167.32zm585.62-83.66h-585.62a83.658 83.658 0 0 1-83.661-83.66V152.443a83.664 83.664 0 0 1 83.661-83.661h585.62a83.662 83.662 0 0 1 83.661 83.661v585.622a83.662 83.662 0 0 1-83.661 83.66z"/><glyph unicode="" horiz-adv-x="964" d="M582.275 746.432c0-110.89-89.894-200.784-200.784-200.784s-200.784 89.894-200.784 200.784c0 110.89 89.894 200.784 200.784 200.784s200.784-89.894 200.784-200.784z"/><glyph unicode="" horiz-adv-x="964" d="M853.896 814.978a40.15 40.15 0 0 1-28.411 11.777 40.157 40.157 0 0 1-28.411-11.777l-35.017-35.017a120.513 120.513 0 0 1-137.135-23.572L198.978 330.485l227.168-227.167L852.13 529.262c37.105 37.065 44.936 92.361 23.532 137.096l35.057 35.057c7.527 7.531 11.758 17.743 11.758 28.391s-4.231 20.859-11.758 28.391l-56.822 56.782zm-171.39-341.735L426.145 216.882 312.581 330.486l256.321 256.321 113.604-113.564zm73.005 73.005 39.755 39.755a40.145 40.145 0 0 1 8.716 13.033 40.14 40.14 0 0 1 0 30.756 40.145 40.145 0 0 1-8.716 13.033l-56.742 56.782a40.135 40.135 0 0 1-13.033 8.716 40.14 40.14 0 0 1-30.756 0 40.114 40.114 0 0 1-13.033-8.716l-39.755-39.755 113.564-113.604z"/><glyph unicode="" horiz-adv-x="964" d="m80.314-14.541 85.213 312.34L392.654 70.632 80.314-14.541z"/><glyph unicode="" glyph-name="qualiconsult" horiz-adv-x="4145" d="M514.165 741.474c0-121.001 99.874-218.527 223.79-218.527 123.919 0 223.793 97.526 223.793 218.527C959.897 862.476 861.874 960 737.955 960c-123.916 0-223.79-97.524-223.79-218.526zM11.097 526.555H0v420.799h430.936v-10.836C208.995 914.846 31.442 743.276 11.097 526.555zm0-83.073H0V22.684h430.936v10.837C208.995 53.387 31.442 226.762 11.097 443.482zm924.759 0h11.096V22.684H516.016v10.837c221.942 19.866 399.494 193.241 419.84 409.961zm1474.06-101.137h-59.185V55.191h59.185v287.154zM4070.79 105.762h-5.559c-24.04 0-38.839 1.807-51.785 12.644-9.24 10.835-11.093 28.894-11.093 57.79v115.585h68.437v50.569h-68.437v86.686h-59.197V174.392c0-59.599 11.093-88.496 35.157-104.748 22.187-14.448 51.785-16.255 86.918-16.255h5.559v52.373zm-1755.199.003h-9.245c-14.797 0-22.196 1.807-29.594 10.837-9.248 12.642-7.397 43.344-7.397 79.462v288.961h-59.185V196.064c0-55.986 0-92.104 18.495-115.583 18.495-25.283 42.537-27.09 81.379-27.09h5.547v52.373zm-747.203 131.837c0 59.597-16.645 113.779-48.087 149.899-38.839 46.955-88.776 68.628-147.961 68.628s-110.97-21.672-149.811-68.628c-31.442-36.12-46.238-90.302-46.238-149.899 0-63.21 18.495-110.165 55.486-148.092 18.495-19.866 44.388-37.925 73.982-52.373C1379.738 1.017 1472.215-47.745 1501.806-64l33.292 52.375c-18.495 9.028-70.283 32.507-85.077 39.731-12.946 5.417-22.194 9.031-22.194 9.031 5.547 0 18.495 5.417 22.194 7.224 81.379 28.894 118.367 99.328 118.367 193.241zM1372.34 392.919c44.388 0 73.979-16.255 99.874-50.569 18.495-23.479 25.893-61.403 25.893-104.748 0-46.955-9.248-84.882-31.442-110.165-25.893-30.703-53.636-45.151-94.325-45.151-38.839 0-68.432 12.642-94.325 45.151-22.194 27.09-33.292 66.821-33.292 110.165s9.248 79.465 25.893 102.941c27.743 36.12 59.185 52.375 101.725 52.375zM3708.27 85.894V55.191h57.344v287.154h-59.197V187.029c-1.829-32.507-5.534-52.373-20.334-65.014-12.946-10.837-31.451-19.868-51.785-19.868-20.358 0-35.133 7.224-44.398 19.868-12.946 16.252-12.946 43.342-12.946 70.432v148.092h-59.173V194.253c0-45.149 3.706-83.076 24.04-110.165 18.505-23.479 46.226-36.12 85.065-36.12 33.304 1.807 62.903 16.255 81.384 37.927zm-658.432 225.753v30.703h-57.32V55.196h59.173v155.316c0 30.7 7.412 50.569 20.358 65.014 12.946 12.644 31.427 19.868 51.785 19.868 20.334 0 35.133-7.224 44.373-19.868 12.946-16.252 12.946-43.342 12.946-72.238V55.196h59.197v146.286c0 45.151-3.706 83.076-24.04 110.165-18.505 23.479-46.251 36.12-85.09 36.12-33.28 0-62.878-14.448-81.384-36.12zm-946.939 30.705v-30.703h-1.851c-16.645 19.866-42.54 37.927-81.379 37.927-36.991 0-66.582-12.642-90.626-36.12-29.591-27.09-42.537-68.628-42.537-113.779 0-45.149 14.794-86.689 42.537-113.779 24.044-23.476 53.636-36.118 90.626-36.118s64.734 18.059 81.379 37.925h1.851V57.002h59.182v288.961h-59.182v-3.611zm-25.895-216.719c-14.794-16.255-35.14-21.672-55.484-21.672-20.346 0-38.841 7.224-53.636 23.476-14.797 16.255-24.044 43.344-24.044 70.434 0 27.092 7.397 54.182 24.044 70.434 14.794 16.255 33.29 23.479 53.636 23.479 20.343 0 40.689-7.224 55.484-21.672 18.495-19.866 24.044-43.344 24.044-72.241 1.851-28.894-3.699-52.373-24.044-72.238zm1847.671-19.868h-9.265c-14.775 0-22.187 1.807-29.574 10.837-9.265 12.642-7.412 43.344-7.412 79.462v288.961h-59.173V196.064c0-55.986 0-92.104 18.481-115.583 18.505-25.283 42.545-27.09 81.384-27.09h5.559v52.373zm-1329.81-1.807c-25.893 0-46.226 9.031-61.026 23.479-16.652 18.059-25.893 45.149-25.893 72.238s9.24 54.182 25.893 72.241c14.799 16.255 33.28 23.479 61.026 23.479 22.211 0 36.986-5.42 59.197-23.479l29.574 45.151c-25.893 21.67-55.467 30.7-90.624 30.7-38.839 0-72.119-10.835-99.864-36.12-27.746-27.09-42.545-68.628-42.545-113.776 0-45.151 14.799-84.882 42.545-113.779 27.746-27.09 61.026-36.12 99.864-36.12 35.157 0 62.903 9.031 90.624 30.703l-29.574 45.149c-20.358-14.448-36.986-19.866-59.197-19.866zm-797.138-18.064V55.191h57.334v287.154h-61.033V187.029c0-30.7-7.397-50.569-20.343-65.014-12.949-12.644-31.444-19.868-51.788-19.868-20.346 0-35.14 7.224-44.388 19.868-12.946 16.252-12.946 43.342-12.946 72.238v148.092h-59.185V196.059c0-45.151 3.699-83.076 24.042-110.165 18.495-23.479 46.238-36.12 85.08-36.12 35.14 0 64.731 14.448 83.227 36.12zm1581.327 86.689c37.01-12.642 53.638-21.672 53.638-41.538 0-18.059-14.799-32.507-49.932-32.507-29.598 0-55.491 12.642-79.531 34.314l-29.598-39.731c31.451-28.896 68.437-43.344 107.276-43.344 75.825 0 107.276 37.925 107.276 84.882 0 54.179-38.839 72.238-90.624 90.3-35.133 12.642-59.173 19.866-59.173 39.731 0 18.061 18.481 30.703 48.079 30.703 24.04 0 44.373-5.417 66.584-23.479l29.598 39.731c-29.598 25.285-61.05 34.316-98.036 34.316-48.079 0-103.57-23.479-103.57-84.882 0-55.986 49.932-72.241 98.011-88.496zm765.708 249.227c0-19.866-16.652-37.927-38.839-37.927-20.358 0-38.839 16.255-38.839 37.927 0 19.866 16.652 37.925 38.839 37.925s38.839-18.059 38.839-37.925zm-5.559 0c0 18.059-12.946 32.507-31.427 32.507-18.505 0-31.451-14.448-31.451-32.507 0-18.061 12.946-32.51 31.451-32.51 16.652 0 31.427 14.448 31.427 32.51zm-27.721 19.866c9.24 0 12.946-3.613 12.946-10.837 0-5.417-1.853-7.224-5.559-9.028l5.559-16.255h-7.412l-5.534 16.255h-12.946v-16.255h-5.559v37.927h18.505v-1.807zm-1.853-18.062c5.534 0 7.387 1.807 7.387 5.42 0 3.611-1.853 5.417-7.387 5.417h-11.093v-10.837h11.093zm-1191.107-110.16c-24.04 21.672-59.173 34.314-92.453 34.314-33.304 0-68.437-12.642-92.477-34.314-31.451-27.09-46.251-68.628-46.251-115.583 0-46.958 16.652-88.496 46.251-115.585 24.04-21.672 59.173-34.314 92.477-34.314 33.28 0 68.413 12.642 92.453 34.314 31.451 27.09 46.251 68.628 46.251 115.585 1.853 46.955-14.799 88.493-46.251 115.583zm-35.133-187.824c-14.799-16.255-33.28-25.283-57.32-25.283-24.064 0-42.545 7.222-57.344 25.283-14.799 18.059-24.04 45.149-24.04 72.241 0 27.09 7.387 54.179 24.04 72.238 14.799 16.255 33.28 25.285 57.344 25.285 24.04 0 42.52-7.224 57.32-25.285 14.799-18.059 24.04-45.149 24.04-72.238 0-27.092-9.24-52.375-24.04-72.241zm-647.327 462.336v-30.703h57.334v287.155h-59.185V689.103c0-30.703-7.397-50.569-20.343-65.017-12.946-12.642-31.442-19.866-51.788-19.866-20.343 0-35.14 7.224-44.388 19.866-12.946 16.255-12.946 43.344-12.946 72.241v148.091h-59.185V698.131c0-45.149 3.699-83.076 24.044-110.165 18.495-23.479 46.238-36.12 85.077-36.12 33.292 0 62.883 14.448 81.379 36.12zm477.172 137.25c0 18.06 11.093 39.732 20.358 50.568 11.093 12.642 27.721 21.672 49.932 21.672 24.04 0 40.692-9.03 51.785-23.478 9.24-10.836 16.652-30.702 16.652-48.762h-138.728zm159.062 86.688c-22.187 23.478-53.638 36.12-86.918 36.12-33.304 0-61.05-10.836-85.09-32.508-29.598-27.09-44.373-70.434-44.373-115.585 0-45.149 14.775-86.686 42.52-113.776 24.04-23.479 55.491-34.314 92.477-34.314 35.157 0 77.678 12.642 107.276 43.342l-33.28 36.12c-18.505-16.252-44.398-27.09-72.143-27.09-22.187 0-42.545 7.224-55.491 21.672-12.946 12.642-20.334 32.507-22.187 54.179h194.194c1.853 54.181-7.387 99.331-36.986 131.839zm-908.113 3.614c-24.044 21.672-59.185 34.314-92.475 34.314-35.143 0-68.432-12.642-92.477-34.314-31.442-27.09-46.238-68.628-46.238-115.584 0-45.149 16.647-88.493 46.238-115.583 24.044-21.672 59.185-34.314 92.477-34.314 35.14 0 68.43 12.642 92.475 34.314 31.442 27.09 46.238 68.628 46.238 115.583 0 46.957-16.647 88.495-46.238 115.584zm-36.991-187.823c-14.794-16.255-33.29-25.285-57.334-25.285s-42.54 7.224-57.334 25.285c-14.797 18.059-24.044 45.149-24.044 72.238s7.397 54.181 24.044 72.241c14.794 16.254 33.29 25.284 57.334 25.284s42.54-7.224 57.334-25.284c14.797-18.06 24.044-45.15 24.044-72.241s-7.397-52.373-24.044-72.238zm484.574-198.654v158.927c16.645-19.866 42.542-37.927 81.381-37.927 36.986 0 66.584 12.642 90.624 36.12 29.598 27.09 42.545 68.628 42.545 111.972 0 45.15-14.799 84.882-42.545 111.972-24.04 23.478-53.638 36.12-90.624 36.12s-64.736-18.06-81.381-37.926h-1.851v34.314h-57.334V429.04h59.185zm22.194 343.139c14.789 16.254 35.148 21.672 55.481 21.672 20.358 0 38.839-7.224 53.638-23.478s24.04-43.344 24.04-70.434c0-27.09-7.387-54.179-24.04-70.434-14.799-16.255-33.28-23.479-53.638-23.479-20.334 0-40.692 5.42-55.481 21.672-18.495 19.866-24.044 43.344-24.044 72.241-1.848 30.702 5.549 52.374 24.044 72.24zm-989.489-157.127c-18.495-10.835-44.388-14.448-66.582-14.448-33.292 0-68.432 10.837-96.176 41.538-24.044 25.285-35.14 59.599-35.14 102.943 0 46.956 18.495 88.494 38.839 111.972 24.044 27.09 57.334 39.732 94.325 39.732 29.594 0 59.185-10.836 86.928-28.896l33.292 52.374c-36.991 27.09-79.531 39.732-122.068 39.732-57.337 0-110.972-19.866-147.963-61.404-33.29-36.12-55.484-90.3-55.484-151.704 0-59.598 18.495-113.777 51.785-148.091 42.54-45.151 96.176-63.21 147.961-63.21 55.486 0 107.274 19.866 129.468 41.538v171.569h-62.883V615.053h3.699zm301.471 225.749c-12.946 5.418-25.893 9.03-40.689 9.03-33.292 0-61.035-16.254-77.68-36.12h-1.848v28.896h-57.337V557.261h59.185v151.703c0 34.314 7.397 55.986 22.194 68.628 11.098 10.836 27.743 16.254 46.238 16.254 9.248 0 16.645-1.806 24.044-5.418l25.893 52.374z"/><glyph unicode="" glyph-name="burberry" horiz-adv-x="7404" d="M3461.514 514.087c129.155-44 192.092-153.933 192.092-259.891 0-149.283-121.2-270.748-270.336-271.279l-529.434.034v959.082l487.555.035c60.994-.579 119.309-25.201 162.265-68.519s67.111-101.834 67.164-162.841c.079-39.379-9.925-78.123-29.066-112.535s-46.789-63.349-80.292-84.049l.053-.037zm-387.965-352.221h244.71c76.931 0 117.156 57.378 117.156 114.084 0 45.668-36.365 110.001-117.156 110.001h-244.71V161.866zm179.121 403.001c56.425 0 100.641 43.538 100.641 99.107 0 53.724-46.133 99.109-100.641 99.109h-179.121V564.867h179.121zM5510.354-17.285l-229.166 402.041c49.73 23.809 91.74 61.188 121.147 107.83s45.056 100.646 45.109 155.787c0 161.774-131.65 293.387-293.468 293.387H4663.9V-17.251h217.954v372.235h173.476l212.178-372.269h242.846zm-632.097 557.392v216.067h234.916l-.919-.355c71.496-3.832 117.051-45.279 117.051-107.872 0-61.923-48.784-105.286-121.567-107.874l-229.481.034zM3773.808-17.285V941.76h716.537V758.765h-492.702V566.899h431.997V379.822h-431.997V175.253h517.067V-17.285h-740.903zm-1022.005 0-229.155 402.041a292.593 292.593 0 0 1 121.137 107.832 292.612 292.612 0 0 1 45.082 155.785c0 161.774-131.621 293.387-293.397 293.387h-490.149V-17.251h217.981v372.235h173.521l212.128-372.269h242.853zm-632.12 557.392v216.067h234.945l-.924-.355c71.501-3.832 117.101-45.279 117.101-107.872 0-61.923-48.826-105.286-121.607-107.874l-229.515.034zM1324.505-40.918c262.233 0 418.827 150.775 418.827 403.283v578.721h-223.839V377.339c0-136.544-71.073-214.822-194.988-214.822h-.105c-123.915 0-194.954 78.278-194.954 214.822v563.747H905.537V362.331c0-252.474 156.596-403.249 418.863-403.249h.105zM612.788 513.885c129.166-44.037 192.116-153.933 192.116-259.891 0-149.283-121.218-270.782-270.36-271.279H5.112v959.116h487.631a231.57 231.57 0 0 0 229.408-231.29 230.59 230.59 0 0 0-29.071-112.554 230.58 230.58 0 0 0-80.292-84.065v-.037zM224.834 161.663h244.702c76.931 0 117.172 57.378 117.172 114.084 0 45.668-36.336 110.001-117.172 110.001H224.834V161.663zm179.197 403.002c56.349 0 100.565 43.538 100.565 99.107 0 53.724-46.13 99.109-100.599 99.109H224.834V564.665h179.197zM6229.675 384.78l229.14-402.043h-242.819L6003.87 355.008h-173.502V-17.227h-217.981v959.01h490.102c161.766 0 293.389-131.613 293.389-293.389-.053-55.138-15.675-109.14-45.082-155.782s-71.391-84.023-121.121-107.832zm-402.984 371.418V540.097h229.534c72.783 2.589 121.593 45.951 121.593 107.872 0 62.596-45.581 104.042-117.104 107.874l.919.355h-234.942zm950.614-382.666V-17.263h236.124v390.795l381.374 568.252h-279.499l-219.95-329.725-219.005 329.725h-279.526l380.482-568.252z"/><glyph unicode="" glyph-name="chanel" horiz-adv-x="1526" d="M109.176-63.919c-.649.077-2.848.307-4.887.514-18.612 1.895-38.481 9.606-54.099 21.002C26.773-25.322 10.272-.448 3.389 28.143-.269 43.335-.996 60.356 1.344 76.016c6.272 41.982 33.651 77.944 71.632 94.084 9.479 4.028 18.885 6.575 29.966 8.115 6.142.852 21.102.858 27.298.008 13.141-1.803 24.28-5.161 35.724-10.771 12.592-6.173 21.307-12.53 31.856-23.237 9.222-9.359 14.916-17.149 21.518-29.439l1.405-2.614-4.977-3.731c-6.857-5.139-22.94-16.767-28.178-20.372l-4.327-2.977-1.78 3.92c-2.201 4.846-3.768 7.719-6.305 11.558-10.138 15.341-26.303 26.297-43.924 29.771-9.324 1.839-20.803 1.635-29.995-.535-9.652-2.276-20.134-7.384-28.141-13.714-3.228-2.55-9.168-8.52-11.781-11.838-14.103-17.908-19.297-40.72-14.46-63.505 1.675-7.889 6.009-18.196 10.531-25.042C69.373-2.42 87.717-14.028 108.495-16.63c3.673-.46 12.521-.46 16.194 0 18.401 2.305 35.403 11.992 47.021 26.792 3.422 4.357 5.806 8.13 8.525 13.488 1.192 2.347 2.266 4.27 2.388 4.27s8.593-6.059 18.826-13.463L220.053.994l-1.886-3.613c-3.912-7.496-10.642-16.923-16.911-23.681-10.68-11.515-21.082-19.34-34.617-26.041-11.69-5.787-24.077-9.479-37.241-11.096-2.951-.363-18.122-.723-20.221-.481zM268.249 58.652v117.986h45.16V91.947h117.955v84.691h45.16V-59.336h-45.16V44.48H313.409V-59.336h-45.16V58.652zm253.902-97.071c5.033 11.506 28.259 64.599 51.61 117.988l42.459 97.069 63.359-.008 51.324-116.531c28.23-64.093 51.613-117.184 51.969-117.982l.645-1.453h-54.075l-20.88 46.783-120.855-.168-20.646-46.615H513l9.152 20.917zm167.31 73.471c-.189.833-41.217 93.76-41.393 93.756-.126-.002-39.09-92.146-39.712-93.912-.07-.195 15.511-.319 40.55-.319 34.59 0 40.647.071 40.554.475zm130.487 23.6v117.986l63.527-.014 99.421-141.492.17 141.505h45.497v-235.98l-36.51.178-63.051 88.69c-34.677 48.781-63.163 88.696-63.303 88.704s-.253-39.942-.253-88.775v-88.79h-45.497V58.652zm290.847 0v117.986h162.779v-47.467h-117.283V82.044h108.521V34.577h-108.521V-12.55h134.134v-46.785h-179.631V58.653zm243.325 0v117.986h45.498V-12.551h126.719v-46.785H1354.12V58.652zm-779.679 178c-48.611 2.28-102.74 17.236-146.38 40.444-33.502 17.818-60.055 37.757-87.871 65.986-21.786 22.109-37.859 42.475-51.465 65.209l-5.957 9.952 8.451 4.542c16.463 8.849 91.52 47.792 92.11 47.792.33 0 3.429-4.276 6.892-9.504C429.336 402 490.529 363.571 562.137 353.111c12.518-1.828 50.162-1.536 63.795.495 15.169 2.261 33.363 6.451 44.919 10.348.752.253-.684 2.618-3.99 6.567-25.598 30.573-48.93 72.536-62.058 111.601-23.745 70.664-25.436 146.517-4.853 217.787 12.783 44.258 34.779 87.215 62.636 122.32 4.15 5.23 7.547 9.845 7.547 10.254 0 1.393-21.746 7.258-35.998 9.709-22.02 3.787-56.49 4.257-76.392 1.041-33.485-5.411-67.472-18.119-94.03-35.157-29.596-18.987-54.276-43.387-73.97-73.133l-8.696-13.132-11.071 5.887c-6.088 3.238-28.703 15.115-50.257 26.392-21.552 11.276-39.254 20.561-39.337 20.634-.342.306 13.152 22.053 18.706 30.145 16.863 24.57 46.808 57.109 68.933 74.904 57.852 46.532 122.167 72.739 194.574 79.283 13.432 1.214 46.737 1.225 59.693.019 45.97-4.276 85.375-15.571 126.083-36.137l19.456-9.829 6.519 3.758c10.524 6.069 29.225 14.825 43.427 20.335 39.847 15.46 79.978 22.819 124.317 22.797 30.962-.015 56.793-3.098 84.834-10.124 63.351-15.873 117.376-46.316 163.923-92.37 25.235-24.967 45.012-50.46 60.978-78.604l2.421-4.266-39.383-20.588c-21.662-11.324-44.322-23.212-50.356-26.417l-10.97-5.829-8.292 12.674c-40.916 62.542-107.843 103.257-181.097 110.174-21.688 2.048-53.891.162-73.465-4.301-10.076-2.297-26.431-7.032-26.425-7.65.002-.323 2.678-3.912 5.945-7.975 41.98-52.194 68.193-115.818 76.661-186.078 2.023-16.768 2.291-59.583.481-76.186-7.651-70.107-33.811-134.805-75.571-186.892-9.467-11.807-9.061-10.99-6.026-12.178 1.434-.562 8.144-2.442 14.91-4.179 34.391-8.83 71.413-10.078 106.173-3.578 63.221 11.822 120.162 49.708 156.784 104.322 3.404 5.079 6.482 9.575 6.834 9.993.354.417 8.797-3.383 18.76-8.445 19.74-10.027 81.57-42.448 82.233-43.12 1.105-1.119-18.6-30.759-30.685-46.155-11.442-14.576-41.431-44.928-55.758-56.434-51.78-41.578-109.887-67.001-173.889-76.077-73.488-10.422-151.314 3.536-214.638 38.493l-8.949 4.94-11.1-5.951c-54.998-29.485-118.083-43.541-181.98-40.548zm205.312 204.837c30.649 38.443 49.77 85.075 54.485 132.859 1.58 16.038.641 48.71-1.822 63.312-6.78 40.187-21.284 74.63-44.681 106.106-4.405 5.926-10.822 13.851-14.259 17.607l-6.246 6.831-5.796-6.369c-7.641-8.395-20.374-25.523-26.792-36.037-32.586-53.393-43.226-118.989-29.426-181.42 8.683-39.287 28.649-78.863 55.555-110.124l6.196-7.199 2.713 2.601c1.49 1.43 6.024 6.756 10.074 11.834z"/><glyph unicode="" glyph-name="esprit" horiz-adv-x="4542" d="M1655.713 234.01c0 153.6-76.036 237.621-351.337 282.259l.003-108.967c190.086-32.821 238.592-82.705 237.282-177.231-1.313-90.585-66.859-182.479-275.301-182.479-175.669 0-276.611 93.21-297.585 223.179H841.61c15.733-160.167 149.449-334.772 420.817-334.772 276.611 0 393.287 154.913 393.287 298.01zM871.76 681.682c0-195.61 176.979-253.372 323.807-266.5l-.003 110.277c-120.606 15.754-209.752 59.074-209.752 154.913 0 94.525 93.076 168.041 246.458 168.041 137.652 0 229.418-68.267 251.704-174.605h131.098C1603.275 788.02 1493.153 960 1232.272 960c-196.642 0-360.514-107.648-360.514-278.318zM0 940.305V826.093h718.404v114.212H0zm718.404-435.856H0V391.546h718.404v112.903zm0-434.541H0V-44.31h718.404V69.908zm1190.314 870.397V-44.31h-114.053v984.615h114.053zm108.809-114.213v114.212h192.706c184.848 0 302.831-115.527 302.831-274.379s-124.537-274.379-302.831-274.379h-192.706v114.218h192.706c121.922 0 188.778 65.638 188.778 160.161 0 94.525-66.857 160.168-188.778 160.168l-192.706-.001zm747.22 114.213h-114.058V-44.31h114.058v984.615zm633.2-274.379c0 158.852-117.996 274.379-302.841 274.379h-221.552V826.094h217.639c121.909 0 186.132-72.207 186.132-160.168 0-89.269-64.223-160.161-186.132-160.161h-217.639V391.547h221.552c178.307 0 302.841 115.528 302.841 274.379zm-336.922-372.839L3283.889-44.31h142.887l-229.402 337.397h-136.35zm500.762 647.218h114.058V-44.31h-114.058v984.615zm235.94 0V826.093h744.632v114.212h-744.632zM4227.728-44.31v764.064H4113.67V-44.31h114.058z"/></font>
</defs>
</svg>
